<svg width="32" height="32" viewBox="0 0 32 32" fill="none" xmlns="http://www.w3.org/2000/svg">
<g clip-path="url(#clip0_1140_1979)">
<mask id="mask0_1140_1979" style="mask-type:alpha" maskUnits="userSpaceOnUse" x="0" y="0" width="32" height="32">
<rect width="32" height="32" transform="matrix(1 0 0 -1 0 32)" fill="#D9D9D9"/>
</mask>
<g mask="url(#mask0_1140_1979)">
<path d="M16.0003 2.66634C14.1559 2.66634 12.4225 3.01634 10.8003 3.71634C9.1781 4.41634 7.76699 5.36634 6.56699 6.56634C5.36699 7.76634 4.41699 9.17745 3.71699 10.7997C3.01699 12.4219 2.66699 14.1552 2.66699 15.9997C2.66699 17.8441 3.01699 19.5775 3.71699 21.1997C4.41699 22.8219 5.36699 24.233 6.56699 25.433C7.76699 26.633 9.1781 27.583 10.8003 28.283C12.4225 28.983 14.1559 29.333 16.0003 29.333C17.8448 29.333 19.5781 28.983 21.2003 28.283C22.8225 27.583 24.2337 26.633 25.4337 25.433C26.6337 24.233 27.5837 22.8219 28.2837 21.1997C28.9837 19.5775 29.3337 17.8441 29.3337 15.9997C29.3337 14.1552 28.9837 12.4219 28.2837 10.7997C27.5837 9.17745 26.6337 7.76634 25.4337 6.56634C24.2337 5.36634 22.8225 4.41634 21.2003 3.71634C19.5781 3.01634 17.8448 2.66634 16.0003 2.66634ZM16.0003 5.33301C18.9781 5.33301 21.5003 6.36634 23.567 8.43301C25.6337 10.4997 26.667 13.0219 26.667 15.9997C26.667 18.9775 25.6337 21.4997 23.567 23.5663C21.5003 25.633 18.9781 26.6663 16.0003 26.6663C13.0225 26.6663 10.5003 25.633 8.43366 23.5663C6.36699 21.4997 5.33366 18.9775 5.33366 15.9997C5.33366 13.0219 6.36699 10.4997 8.43366 8.43301C10.5003 6.36634 13.0225 5.33301 16.0003 5.33301ZM16.0003 7.99967C13.7781 7.99967 11.8892 8.77745 10.3337 10.333C8.7781 11.8886 8.00033 13.7775 8.00033 15.9997C8.00033 18.2219 8.7781 20.1108 10.3337 21.6663C11.8892 23.2219 13.7781 23.9997 16.0003 23.9997C18.2225 23.9997 20.1114 23.2219 21.667 21.6663C23.2225 20.1108 24.0003 18.2219 24.0003 15.9997C24.0003 13.7775 23.2225 11.8886 21.667 10.333C20.1114 8.77745 18.2225 7.99967 16.0003 7.99967ZM16.0003 10.6663C17.467 10.6663 18.7225 11.1886 19.767 12.233C20.8114 13.2775 21.3337 14.533 21.3337 15.9997C21.3337 17.4663 20.8114 18.7219 19.767 19.7663C18.7225 20.8108 17.467 21.333 16.0003 21.333C14.5337 21.333 13.2781 20.8108 12.2337 19.7663C11.1892 18.7219 10.667 17.4663 10.667 15.9997C10.667 14.533 11.1892 13.2775 12.2337 12.233C13.2781 11.1886 14.5337 10.6663 16.0003 10.6663ZM16.0003 13.333C15.267 13.333 14.6392 13.5941 14.117 14.1163C13.5948 14.6386 13.3337 15.2663 13.3337 15.9997C13.3337 16.733 13.5948 17.3608 14.117 17.883C14.6392 18.4052 15.267 18.6663 16.0003 18.6663C16.7337 18.6663 17.3614 18.4052 17.8837 17.883C18.4059 17.3608 18.667 16.733 18.667 15.9997C18.667 15.2663 18.4059 14.6386 17.8837 14.1163C17.3614 13.5941 16.7337 13.333 16.0003 13.333Z" fill="#1C1B1F"/>
</g>
</g>
<defs>
<clipPath id="clip0_1140_1979">
<rect width="32" height="32" fill="white" transform="matrix(1 0 0 -1 0 32)"/>
</clipPath>
</defs>
</svg>
