<svg id="Layer_1" data-name="Layer 1" xmlns="http://www.w3.org/2000/svg" viewBox="0 0 216 59" data-ember-extension="1"><defs><style>.cls-1{fill:#059ed2;}.cls-2{fill:#82cfe8;}.cls-3{fill:#001a61;}</style></defs><path class="cls-1" d="M22.12,4.75a12.32,12.32,0,1,0-8.72,21H25.73V13.62a12.29,12.29,0,0,0-3.61-8.87"/><path class="cls-1" d="M46.77,22.18a12.32,12.32,0,1,0-21-8.72V25.79H37.89a12.3,12.3,0,0,0,8.88-3.61"/><path class="cls-2" d="M4.69,29.4a12.32,12.32,0,1,0,21,8.71V25.79H13.57A12.3,12.3,0,0,0,4.69,29.4"/><path class="cls-3" d="M36.57,50.93A14.46,14.46,0,0,1,22.11,36.28V12.45a3.68,3.68,0,1,1,7.35,0V36.32a7.11,7.11,0,1,0,7.11-7,3.67,3.67,0,0,1,0-7.34,14.46,14.46,0,1,1,0,28.92"/><path class="cls-3" d="M19,25.68A3.68,3.68,0,1,1,15.33,22,3.67,3.67,0,0,1,19,25.68"/><path class="cls-3" d="M75,31a9.26,9.26,0,0,0-3.59.69,8.79,8.79,0,0,0-2.9,1.9,8.68,8.68,0,0,0-1.91,2.88,9.76,9.76,0,0,0-.69,3.65,9.49,9.49,0,0,0,.66,3.52,8.89,8.89,0,0,0,1.84,2.91,8.66,8.66,0,0,0,2.84,2,8.94,8.94,0,0,0,3.63.72,9.33,9.33,0,0,0,4-.81,8.59,8.59,0,0,0,2.86-2.11,9,9,0,0,0,1.72-2.93,9.94,9.94,0,0,0,.58-3.27,9.3,9.3,0,0,0-.72-3.71,8.88,8.88,0,0,0-2-2.88,9,9,0,0,0-2.88-1.86A9.2,9.2,0,0,0,75,31m0,20.08a11,11,0,0,1-5.83-1.52,10.18,10.18,0,0,1-3.14-3v4H64.13V21.74H66v12c.21-.32.44-.62.68-.92A9.23,9.23,0,0,1,68.83,31a11.39,11.39,0,0,1,2.75-1.27A12.07,12.07,0,0,1,75,29.2h0a11.07,11.07,0,0,1,4.55.91A10.65,10.65,0,0,1,85.23,36a11.49,11.49,0,0,1,0,8.22,10.26,10.26,0,0,1-2.17,3.49,10.82,10.82,0,0,1-3.47,2.45,11,11,0,0,1-4.6.93"/><path class="cls-3" d="M90.13,38.86h18a7.49,7.49,0,0,0-.83-2.8,9.55,9.55,0,0,0-2-2.69,9.22,9.22,0,0,0-2.85-1.77A7.8,7.8,0,0,0,99.17,31a9.53,9.53,0,0,0-3.39.61A9.26,9.26,0,0,0,93,33.37,8.83,8.83,0,0,0,91,36a8.36,8.36,0,0,0-.83,2.87m9,12.26a11.54,11.54,0,0,1-4.41-.83A10.49,10.49,0,0,1,91.23,48a10.66,10.66,0,0,1-2.3-3.49,11.3,11.3,0,0,1-.82-4.29v0a10.91,10.91,0,0,1,3.17-7.82A10.56,10.56,0,0,1,94.79,30a11.6,11.6,0,0,1,8.36-.1A11.15,11.15,0,0,1,106.6,32a10.51,10.51,0,0,1,2.45,3.32,11.31,11.31,0,0,1,1,4.35l-.06,1h-20a8.74,8.74,0,0,0,.9,3.62,8.91,8.91,0,0,0,2.23,2.8,8.79,8.79,0,0,0,2.94,1.63,9.71,9.71,0,0,0,3,.53A9.42,9.42,0,0,0,104,48a8.53,8.53,0,0,0,3.32-3.76l.12-.24h2.09l-.26.59a10.56,10.56,0,0,1-1.82,2.9,11.08,11.08,0,0,1-2.42,2.05,10.52,10.52,0,0,1-2.85,1.2,11.91,11.91,0,0,1-3.09.4"/><path class="cls-3" d="M132.26,50.62h-1.92v-11a11.83,11.83,0,0,0-.63-4.18A6.67,6.67,0,0,0,128,32.82a6.16,6.16,0,0,0-2.48-1.38,10.54,10.54,0,0,0-2.91-.4,8.17,8.17,0,0,0-5.68,2,7.36,7.36,0,0,0-2,5.57v12H113V29.7h1.92v2.82a5.51,5.51,0,0,1,.68-.77,8.16,8.16,0,0,1,2.07-1.46,10.15,10.15,0,0,1,2.43-.85,11.07,11.07,0,0,1,2.55-.24h0a10,10,0,0,1,6.55,2.11c2,1.72,3.07,4.51,3.07,8.28Z"/><path class="cls-3" d="M136.8,38.86h18a7.49,7.49,0,0,0-.83-2.8,9.55,9.55,0,0,0-2.05-2.69,9.22,9.22,0,0,0-2.85-1.77,7.78,7.78,0,0,0-3.24-.56,9.58,9.58,0,0,0-3.4.61,9.26,9.26,0,0,0-2.83,1.72,9,9,0,0,0-2,2.62,8.36,8.36,0,0,0-.83,2.87m9,12.26a11.56,11.56,0,0,1-4.42-.83A10.49,10.49,0,0,1,137.9,48a10.63,10.63,0,0,1-2.29-3.49,11.12,11.12,0,0,1-.83-4.29v0a11.21,11.21,0,0,1,.84-4.33A11.06,11.06,0,0,1,138,32.34,10.56,10.56,0,0,1,141.46,30a11.6,11.6,0,0,1,8.36-.1A11,11,0,0,1,153.27,32a10.36,10.36,0,0,1,2.45,3.32,11.32,11.32,0,0,1,1.05,4.35l-.07,1h-20a8.59,8.59,0,0,0,.91,3.62,8.85,8.85,0,0,0,5.16,4.43,9.71,9.71,0,0,0,3,.53,9.39,9.39,0,0,0,4.87-1.3A8.53,8.53,0,0,0,154,44.22l.12-.24h2.09l-.26.59a10.56,10.56,0,0,1-1.82,2.9,10.85,10.85,0,0,1-2.42,2.05,10.39,10.39,0,0,1-2.85,1.2,11.83,11.83,0,0,1-3.08.4"/><polygon class="cls-3" points="166.63 50.62 164.69 50.62 164.59 50.36 156.08 29.7 158.1 29.7 165.66 47.84 173.1 29.7 175.23 29.7 166.63 50.62"/><path class="cls-3" d="M179.46,26h-1.91v-4.3h1.91Zm0,24.58h-1.91V29.7h1.91Z"/><polygon class="cls-3" points="188.78 50.62 186.86 50.62 186.86 31.53 182.43 31.53 182.43 29.7 186.86 29.7 186.86 21.74 188.78 21.74 188.78 29.7 193.93 29.7 193.93 31.53 188.78 31.53 188.78 50.62"/><polygon class="cls-3" points="201.47 58.69 199.33 58.69 203.08 50.15 194.96 29.7 197.05 29.7 204.2 47.61 211.82 29.7 214 29.7 201.47 58.69"/></svg>